 <svg version="1.0" xmlns="http://www.w3.org/2000/svg" width="700.000000pt" height="223.000000pt" viewBox="0 0 700.000000 223.000000" preserveAspectRatio="xMidYMid meet">
<metadata>
Created by potrace 1.12, written by Peter Selinger 2001-2015
</metadata>
<g transform="translate(0.000000,223.000000) scale(0.100000,-0.100000)" fill="#000000" stroke="none">
<path d="M55 1958 c-3 -7 -4 -411 -3 -898 l3 -885 140 0 c135 0 141 1 183 28
40 26 42 29 42 77 0 38 4 52 17 57 10 4 19 1 21 -7 4 -12 42 -50 92 -93 10 -8
29 -18 42 -22 12 -4 32 -15 43 -25 19 -16 125 -33 210 -33 76 0 163 18 213 45
95 50 134 86 197 187 6 9 18 27 27 41 9 14 19 41 23 60 4 19 14 43 22 52 16
18 37 186 36 298 0 123 -19 279 -35 297 -9 10 -20 35 -23 57 -16 81 -137 230
-228 278 -63 33 -73 36 -160 49 -68 9 -99 10 -138 1 -28 -7 -67 -12 -88 -12
-25 0 -44 -7 -56 -20 -10 -11 -26 -20 -37 -20 -10 0 -26 -9 -35 -20 -10 -11
-22 -20 -28 -20 -12 0 -71 -62 -77 -82 -2 -6 -12 -9 -21 -5 -15 6 -17 34 -17
301 0 162 -3 301 -6 310 -5 14 -31 16 -180 16 -131 0 -176 -3 -179 -12z m745
-753 c6 -8 22 -17 33 -21 26 -7 97 -73 97 -90 0 -6 9 -22 19 -35 32 -41 47
-196 31 -318 -10 -73 -18 -105 -32 -117 -10 -10 -18 -23 -18 -30 0 -23 -65
-81 -121 -108 -73 -34 -133 -34 -202 0 -59 30 -104 73 -129 124 -48 102 -53
123 -53 230 0 91 4 114 28 177 53 134 140 201 263 202 51 1 75 -3 84 -14z"></path>
<path d="M4510 1944 c-6 -16 -10 -352 -10 -889 0 -844 0 -865 19 -875 26 -13
306 -13 332 0 18 10 19 23 19 186 0 96 5 196 11 222 10 44 47 92 71 92 17 0
76 -67 124 -141 15 -24 40 -58 54 -75 46 -57 60 -78 60 -87 0 -4 20 -33 45
-64 25 -30 45 -61 45 -69 0 -7 8 -17 18 -23 23 -12 248 -35 347 -36 78 0 80 1
83 26 2 15 -5 32 -18 44 -11 10 -20 22 -20 26 0 5 -14 28 -30 51 -17 24 -47
68 -68 98 -20 30 -52 75 -70 100 -32 43 -50 70 -147 210 -24 36 -58 84 -75
108 -39 55 -40 101 -2 150 30 39 86 104 117 136 43 44 172 193 200 231 16 22
40 50 53 62 57 53 1 82 -160 82 -187 1 -212 -15 -422 -269 -141 -170 -169
-200 -188 -200 -9 0 -19 7 -22 16 -3 9 -6 213 -6 454 0 424 -1 440 -19 450
-11 6 -87 10 -176 10 l-155 0 -10 -26z"></path>
<path d="M2085 1520 c-22 -5 -60 -9 -85 -9 -27 -1 -57 -9 -75 -21 -16 -11 -40
-20 -52 -20 -38 0 -187 -129 -238 -207 -37 -55 -65 -119 -71 -158 -3 -22 -14
-66 -25 -98 -24 -72 -26 -242 -3 -302 8 -22 19 -71 24 -109 6 -38 16 -76 24
-85 8 -9 18 -28 21 -44 12 -45 165 -198 232 -231 32 -16 76 -38 98 -49 36 -19
58 -21 241 -21 185 0 203 2 235 21 19 11 46 23 61 27 48 11 180 109 225 166
23 30 42 59 43 63 0 5 9 20 20 34 11 14 20 39 20 55 0 17 9 41 20 55 19 24 20
41 20 252 0 209 -2 228 -20 256 -11 17 -20 44 -20 60 0 17 -7 40 -15 50 -9 11
-30 43 -48 70 -17 28 -43 61 -57 75 -43 44 -165 120 -192 120 -14 0 -36 8 -49
19 -33 25 -263 47 -334 31z m187 -300 c49 -14 111 -79 149 -156 l32 -64 -1
-166 c0 -148 -2 -169 -19 -193 -11 -14 -23 -37 -26 -51 -7 -26 -65 -92 -106
-119 -19 -12 -49 -16 -120 -15 -92 0 -98 2 -140 32 -39 29 -56 47 -90 102 -16
25 -42 111 -52 170 -11 67 -2 207 16 235 7 11 16 35 20 54 14 65 91 151 155
174 26 9 144 7 182 -3z"></path>
<path d="M6275 1520 c-27 -4 -70 -9 -95 -9 -25 -1 -63 -10 -85 -20 -22 -11
-51 -24 -65 -31 -14 -6 -35 -17 -48 -24 -30 -17 -122 -113 -122 -126 0 -6 -9
-23 -21 -39 -18 -24 -20 -42 -20 -147 -1 -135 9 -167 71 -240 25 -29 99 -84
114 -84 4 0 19 -9 33 -20 14 -11 40 -20 57 -20 17 0 45 -9 61 -20 20 -14 48
-20 85 -20 30 -1 73 -8 95 -16 22 -9 62 -20 89 -26 89 -18 156 -73 156 -129 0
-36 -31 -89 -52 -89 -5 0 -21 -9 -35 -20 -21 -16 -41 -20 -110 -20 -103 0
-147 20 -229 106 l-57 59 -133 3 c-173 5 -184 3 -184 -47 0 -23 8 -48 19 -63
11 -13 23 -37 27 -51 10 -41 135 -170 191 -197 109 -52 132 -59 213 -66 173
-13 362 -1 400 26 14 9 41 21 60 25 36 8 135 80 180 131 14 16 39 52 55 79 27
47 29 57 30 155 0 95 -2 108 -22 134 -13 16 -23 36 -23 45 -1 31 -105 121
-141 121 -7 0 -27 9 -44 20 -16 11 -46 20 -65 20 -19 0 -51 8 -70 18 -19 11
-61 22 -93 26 -32 3 -71 13 -85 20 -15 8 -47 17 -72 21 -57 9 -136 53 -149 83
-26 56 -8 106 54 148 34 23 51 27 115 28 66 1 81 -3 123 -28 34 -20 57 -44 78
-81 l30 -53 82 -4 c45 -2 117 -2 160 0 l77 4 0 63 c0 45 -5 69 -18 86 -11 13
-22 35 -25 49 -8 32 -83 109 -123 126 -17 7 -36 20 -44 28 -7 9 -22 16 -33 16
-11 0 -29 8 -39 17 -27 24 -269 47 -353 33z"></path>
<path d="M3495 1511 c-51 -4 -89 -12 -105 -23 -13 -10 -37 -18 -52 -18 -15 0
-30 -5 -33 -10 -4 -6 -33 -28 -65 -48 -53 -35 -100 -82 -140 -142 -8 -12 -25
-36 -37 -53 -13 -17 -23 -39 -23 -49 0 -11 -9 -36 -19 -56 -28 -52 -46 -262
-32 -357 6 -38 11 -90 11 -113 0 -28 7 -53 20 -69 11 -14 20 -38 20 -53 0 -15
9 -35 20 -45 11 -10 20 -22 20 -28 0 -20 106 -134 159 -170 30 -21 58 -42 61
-46 3 -5 21 -12 40 -16 19 -4 50 -16 68 -27 30 -19 50 -20 237 -20 186 0 207
2 237 20 18 10 45 22 60 26 15 3 43 17 63 30 53 36 164 146 171 170 4 12 12
28 19 36 7 8 16 29 19 45 4 17 15 38 23 47 9 10 19 49 24 90 4 40 15 91 23
113 21 56 20 135 -4 202 -11 32 -20 80 -20 109 0 36 -6 59 -20 77 -11 14 -20
31 -20 39 0 73 -213 298 -282 298 -7 0 -29 9 -49 19 -28 15 -63 20 -175 24
-76 3 -175 2 -219 -2z m318 -362 c46 -50 67 -81 67 -98 0 -14 9 -46 20 -70 25
-54 28 -210 6 -268 -8 -21 -20 -57 -26 -80 -7 -29 -29 -61 -69 -104 -55 -58
-63 -63 -118 -70 -32 -5 -83 -6 -113 -3 -73 9 -146 68 -186 152 -26 55 -27 62
-28 239 -1 173 0 183 22 212 12 16 22 36 22 44 0 22 98 109 133 118 18 5 70 7
117 5 l85 -4 68 -73z"></path>
</g>
</svg>