<?xml version="1.0" standalone="no"?>
<!DOCTYPE svg PUBLIC "-//W3C//DTD SVG 20010904//EN"
 "http://www.w3.org/TR/2001/REC-SVG-20010904/DTD/svg10.dtd">
<svg version="1.0" xmlns="http://www.w3.org/2000/svg"
 width="61.000000pt" height="53.000000pt" viewBox="0 0 61.000000 53.000000"
 preserveAspectRatio="xMidYMid meet">

<g transform="translate(0.000000,53.000000) scale(0.100000,-0.100000)"
fill="#DB2777" stroke="none">
<path d="M105 508 c-83 -45 -116 -138 -80 -224 8 -19 67 -89 131 -155 154
-157 143 -157 297 -1 122 123 147 164 147 232 0 49 -17 84 -59 125 -27 25 -41
30 -94 33 -52 2 -68 -1 -101 -21 l-39 -24 -41 23 c-45 26 -125 32 -161 12z
m157 -71 l44 -34 43 34 c62 47 119 47 167 -1 45 -45 48 -107 7 -158 -48 -60
-207 -218 -220 -218 -13 0 -211 208 -230 243 -17 30 -16 72 2 107 36 70 116
81 187 27z"/>
</g>
</svg>
