<?xml version="1.0" standalone="no"?>
<!DOCTYPE svg PUBLIC "-//W3C//DTD SVG 20010904//EN"
 "http://www.w3.org/TR/2001/REC-SVG-20010904/DTD/svg10.dtd">
<svg version="1.0" xmlns="http://www.w3.org/2000/svg"
 width="280.000000pt" height="74.000000pt" viewBox="0 0 280.000000 74.000000"
 preserveAspectRatio="xMidYMid meet">

<g transform="translate(0.000000,74.000000) scale(0.100000,-0.100000)"
fill="#000000" stroke="none">
<path fill="#DB2777" d="M245 649 c-84 -49 -116 -139 -80 -225 8 -19 67 -89 131 -155 154
-157 143 -157 296 -1 128 130 148 160 148 227 0 54 -16 88 -60 130 -29 28 -37
30 -103 30 -58 0 -78 -4 -102 -22 l-30 -21 -29 21 c-35 25 -139 35 -171 16z
m160 -74 l46 -36 40 36 c80 72 186 34 196 -72 l5 -51 -117 -126 c-64 -69 -120
-126 -124 -126 -11 0 -228 223 -240 247 -37 73 22 163 106 163 32 0 52 -8 88
-35z"/>
<path d="M890 395 l0 -215 45 0 c39 0 45 3 45 20 0 20 0 20 29 -1 36 -26 100
-29 135 -5 41 26 60 73 60 146 0 73 -19 120 -60 146 -35 24 -99 21 -135 -5
l-29 -22 0 76 0 75 -45 0 -45 0 0 -215z m200 15 c15 -15 20 -33 20 -70 0 -79
-49 -114 -101 -71 -20 16 -24 29 -24 71 0 42 4 55 24 71 30 24 56 24 81 -1z"/>
<path d="M1950 395 l0 -215 45 0 45 0 0 54 c0 30 4 57 9 61 5 3 29 -22 52 -55
l42 -60 54 0 55 0 -57 80 c-31 44 -58 86 -61 93 -2 7 21 42 51 77 l56 65 -50
3 c-47 3 -54 0 -79 -30 -15 -18 -37 -44 -49 -58 l-22 -25 -1 113 0 112 -45 0
-45 0 0 -215z"/>
<path d="M1355 501 c-48 -12 -74 -33 -95 -77 -39 -79 -14 -189 51 -228 40 -24
123 -25 167 -2 50 26 72 70 72 146 0 100 -39 149 -130 163 -19 3 -48 2 -65 -2z
m89 -93 c9 -12 16 -43 16 -68 0 -57 -22 -90 -59 -90 -42 0 -66 33 -66 90 0 33
6 54 19 69 25 28 70 27 90 -1z"/>
<path d="M1703 500 c-78 -17 -116 -71 -116 -161 1 -58 17 -102 50 -131 41 -37
147 -41 201 -7 57 36 78 149 42 224 -30 62 -100 92 -177 75z m83 -91 c13 -15
19 -36 19 -69 0 -57 -24 -90 -66 -90 -37 0 -59 33 -59 90 0 25 7 56 16 68 20
28 65 29 90 1z"/>
<path d="M2341 500 c-50 -12 -83 -50 -83 -96 0 -50 32 -78 107 -95 64 -14 84
-31 65 -54 -17 -21 -56 -19 -80 5 -25 25 -100 29 -100 5 0 -27 30 -62 63 -76
68 -29 182 -6 207 40 5 11 10 35 10 55 0 44 -32 71 -103 86 -65 13 -80 22 -75
46 5 28 53 31 75 5 23 -28 93 -30 93 -3 0 22 -25 59 -48 71 -27 14 -94 20
-131 11z"/>
</g>
</svg>
